<svg width="13" height="20" viewBox="0 0 13 20" fill="none" xmlns="http://www.w3.org/2000/svg">
<path d="M0 5.72988C0 6.63029 0.138274 7.17599 0.138274 7.17599H3.45686C3.45686 7.17599 3.31858 6.603 3.31858 5.94816C3.31858 4.22919 4.42478 2.97408 6.27766 2.97408C8.10288 2.97408 9.15376 4.06548 9.15376 5.72988C9.15376 8.70396 4.2865 9.71351 4.2865 13.8608C4.2865 14.1883 4.36947 14.4884 4.36947 14.4884H7.57743C7.57743 14.4884 7.52212 14.3247 7.52212 13.8881C7.52212 11.3506 12.5 10.1228 12.5 5.56617C12.5 2.51023 10.2876 0 6.27766 0C2.48894 0 0 2.53752 0 5.72988ZM6.11173 20C7.3562 20 8.2688 19.1542 8.2688 17.899C8.2688 16.6712 7.3562 15.7981 6.11173 15.7981C4.8396 15.7981 3.95465 16.6712 3.95465 17.899C3.95465 19.1542 4.8396 20 6.11173 20Z" fill="#47525D"/>
</svg>
